<svg width="143" height="33" viewBox="0 0 143 33" fill="none" xmlns="http://www.w3.org/2000/svg">
<g clip-path="url(#clip0_14136_6801)">
<path d="M143 22.0957V22.3736C142.991 23.2053 142.882 24.0166 142.689 24.7918C141.519 29.5016 137.181 33 132.015 33C128.98 33 126.234 31.7954 124.246 29.8451L127.924 26.2133C128.966 27.2439 130.415 27.8834 132.015 27.8834C134.259 27.8834 136.204 26.6269 137.156 24.7918H121.342C121.137 23.9737 121.028 23.1149 121.028 22.2335C121.028 21.3521 121.137 20.4956 121.342 19.6752C122.511 14.9655 126.847 11.467 132.015 11.467C135.018 11.467 137.742 12.6467 139.723 14.5655L136.047 18.195C135.007 17.1983 133.584 16.5836 132.015 16.5836C129.771 16.5836 127.827 17.8401 126.875 19.6752H142.689C142.882 20.4527 142.991 21.264 143 22.0957Z" fill="#25517C"/>
<path d="M36.6351 11.4309C34.6563 11.4309 33.1434 11.9846 33.1434 11.9846C32.4838 12.2716 32.0433 12.5903 31.4713 13.0106C30.1568 13.9779 29.3611 14.8864 28.3925 15.9666C27.4815 16.9859 26.5221 17.9645 25.6296 18.9995C24.3265 20.5092 22.1886 22.794 18.5747 26.0664C18.0419 26.541 17.0456 27.2913 15.6042 27.662C14.97 27.8247 14.3819 27.8767 14.0267 27.8767C10.8441 27.8767 8.25185 25.3365 8.25185 22.2155C8.25185 19.0944 10.9709 16.5407 14.0267 16.5565C17.3086 16.5746 20.0669 19.4945 19.7578 22.9251C21.2546 21.612 22.809 20.1566 24.3819 18.5475C22.8505 14.396 18.7915 11.4309 14.0267 11.4309C7.94973 11.4309 3.02124 16.2582 3.02124 22.2155C3.02124 28.1727 7.94973 33 14.0267 33C16.1462 33 18.125 32.4124 19.8039 31.3954V33H25.0345V27.6687C25.5166 27.271 26.0009 26.8461 26.4875 26.4009C28.1572 30.279 32.071 33 36.6351 33C42.7144 33 47.6429 28.1727 47.6429 22.2155C47.6429 16.2582 42.7144 11.4309 36.6351 11.4309ZM36.6351 27.8767C33.4501 27.8767 30.8602 25.3365 30.8602 22.2155C30.8602 22.046 30.8671 21.8765 30.8832 21.7092C31.1438 18.8255 33.6231 16.5565 36.6351 16.5565C39.82 16.5565 42.4123 19.0944 42.4123 22.2155C42.4123 25.3365 39.82 27.8767 36.6351 27.8767ZM30.8602 0C29.993 0 29.1282 0 28.261 0C27.3939 0 26.5059 0 25.6296 0V17.2435C26.3999 16.2537 27.327 15.1824 28.4363 14.0909C29.2642 13.275 30.0807 12.5631 30.8533 11.9439C30.8556 7.96185 30.8579 3.9798 30.8625 0L30.8602 0Z" fill="url(#paint0_linear_14136_6801)"/>
<path d="M93.3554 19.6775C94.3771 18.0888 94.9813 16.2198 95.0297 14.2152V11.4806H89.7945V12.8863C89.7945 14.3847 89.3079 15.8039 88.4569 16.9656C88.0809 17.4786 86.9555 18.9724 84.9421 19.4967C84.3886 19.6413 83.9112 19.6752 83.5814 19.6798H78.8651V0H73.6299V33H78.8651V24.8076C80.1474 24.8099 82.3268 24.8121 83.6091 24.8167C83.9251 24.8302 84.3655 24.8686 84.8821 24.9703C85.5256 25.0969 87.0178 25.393 88.1363 26.3783C89.7368 27.7908 89.7945 29.931 89.7968 30.4236V32.9955H95.0297V30.218C94.9836 28.236 94.3909 26.3873 93.39 24.8076C92.7742 23.8268 91.997 22.9522 91.0998 22.2155C91.9808 21.4945 92.7442 20.638 93.3554 19.6798V19.6775Z" fill="#25517C"/>
<path d="M119.015 11.467V33H113.784V31.4067C112.11 32.4169 110.138 33 108.028 33C105.918 33 103.943 32.4169 102.269 31.4067C99.1326 29.5083 97.0408 26.1116 97.0408 22.2335V11.467H102.269V22.1793C102.269 25.2935 104.847 27.8201 108.028 27.8201C111.208 27.8201 113.784 25.2935 113.784 22.1793V11.467H119.015Z" fill="#25517C"/>
<path d="M66.3997 22.1883C66.3997 25.307 63.819 27.8337 60.6364 27.8337C60.0137 27.8337 59.4094 27.7365 58.849 27.5557L64.3241 22.1883L66.1138 20.4345L70.0252 16.6039C69.5662 15.8672 69.0197 15.1847 68.4016 14.579C67.7835 13.9733 67.087 13.4354 66.3352 12.988C64.6747 11.9981 62.7236 11.4286 60.6364 11.4286C54.5709 11.4286 49.6562 16.2468 49.6562 22.1905C49.6562 24.2358 50.2374 26.1455 51.2476 27.7727C51.7042 28.5094 52.2508 29.1919 52.8689 29.7998C53.4893 30.4055 54.1858 30.9434 54.9376 31.3886C56.5981 32.3785 58.5469 32.948 60.6341 32.948C66.6996 32.948 71.6165 28.132 71.6165 22.1883H66.3974H66.3997ZM55.1567 23.9398C54.9722 23.3906 54.873 22.7985 54.873 22.1883C54.873 19.0695 57.4514 16.5406 60.6341 16.5406C61.2568 16.5406 61.861 16.6378 62.4237 16.8209L56.9441 22.1883L55.1567 23.9398Z" fill="#25517C"/>
<path d="M10.9132 8.65566C10.0138 8.73928 9.22276 8.89974 8.55855 9.07827C9.04979 8.76188 9.92155 8.29181 11.1093 8.07711C12.3616 7.85337 13.3948 8.01835 13.976 8.15395C14.8777 7.372 15.7818 6.59005 16.6835 5.80811C13.517 5.84652 10.3505 5.88494 7.18402 5.92336C4.79011 8.01383 2.3939 10.1043 0 12.1948L0.608854 12.2083V15.2525C0.350552 15.3135 0.156826 15.5395 0.156826 15.813C0.156826 16.0864 0.350552 16.3124 0.608854 16.3734V17.1305C0.350552 17.1915 0.156826 17.4175 0.156826 17.691C0.156826 18.0097 0.41974 18.2673 0.744924 18.2673C1.07011 18.2673 1.33302 18.0097 1.33302 17.691C1.33302 17.4198 1.1393 17.1915 0.880993 17.1305V16.3734C1.1393 16.3124 1.33302 16.0864 1.33302 15.813C1.33302 15.5395 1.1393 15.3135 0.880993 15.2525V12.2151C1.8035 12.2354 2.72601 12.2535 3.64851 12.2739C4.05442 13.1846 4.46032 14.0954 4.86622 15.0062C5.46124 14.2378 6.86575 12.6332 9.28503 11.6185C11.8104 10.5608 14.0567 10.7235 15.0322 10.8523C14.7716 10.1472 14.5087 9.44213 14.2481 8.73702C13.3579 8.61272 12.2186 8.53814 10.9109 8.66018L10.9132 8.65566Z" fill="#25517C"/>
</g>
<defs>
<linearGradient id="paint0_linear_14136_6801" x1="3.02124" y1="16.5" x2="47.6429" y2="16.5" gradientUnits="userSpaceOnUse">
<stop stop-color="#F5DF4C"/>
<stop offset="0.48" stop-color="#F6C739"/>
<stop offset="1" stop-color="#F9A822"/>
</linearGradient>
<clipPath id="clip0_14136_6801">
<rect width="143" height="33" fill="white"/>
</clipPath>
</defs>
</svg>
